STARTFONT 2.1
FONT -FontForge-BritishRailLightNormal-Book-R-Normal--10-100-75-75-P-72-ISO10646-1
SIZE 10 75 75
FONTBOUNDINGBOX 14 11 0 -3
COMMENT "Generated by fontforge, http://fontforge.sourceforge.net"
COMMENT "British Rail"
STARTPROPERTIES 39
FOUNDRY "FontForge"
FAMILY_NAME "BritishRailLightNormal"
WEIGHT_NAME "Book"
SLANT "R"
SETWIDTH_NAME "Normal"
ADD_STYLE_NAME ""
PIXEL_SIZE 10
POINT_SIZE 100
RESOLUTION_X 75
RESOLUTION_Y 75
SPACING "P"
AVERAGE_WIDTH 72
CHARSET_REGISTRY "ISO10646"
CHARSET_ENCODING "1"
FONTNAME_REGISTRY ""
CHARSET_COLLECTIONS "ISO10646-1"
FONT_NAME "BritishRailLightNormal"
FACE_NAME "BritishRailLightNormal"
COPYRIGHT "British Rail"
FONT_VERSION "Macromedia Fontographer 4.1.5 19/7/01"
FONT_ASCENT 8
FONT_DESCENT 2
UNDERLINE_POSITION 0
UNDERLINE_THICKNESS 0
X_HEIGHT 4
CAP_HEIGHT 6
RAW_ASCENT 800
RAW_DESCENT 200
NORM_SPACE 2
RELATIVE_WEIGHT 40
RELATIVE_SETWIDTH 50
SUPERSCRIPT_X 0
SUPERSCRIPT_Y 4
SUPERSCRIPT_SIZE 6
SUBSCRIPT_X 0
SUBSCRIPT_Y 1
SUBSCRIPT_SIZE 6
AVG_LOWERCASE_WIDTH 62
AVG_UPPERCASE_WIDTH 62
ENDPROPERTIES
CHARS 164
STARTCHAR space
ENCODING 32
SWIDTH 199 0
DWIDTH 2 0
BBX 1 1 0 0
BITMAP
00
ENDCHAR
STARTCHAR exclam
ENCODING 33
SWIDTH 256 0
DWIDTH 3 0
BBX 1 7 1 0
BITMAP
80
80
80
80
80
00
80
ENDCHAR
STARTCHAR numbersign
ENCODING 35
SWIDTH 1002 0
DWIDTH 10 0
BBX 10 11 0 -3
BITMAP
FFC0
FFC0
F9C0
E7C0
D1C0
F7C0
FBC0
CBC0
FDC0
FFC0
FFC0
ENDCHAR
STARTCHAR dollar
ENCODING 36
SWIDTH 1295 0
DWIDTH 13 0
BBX 10 11 1 -3
BITMAP
0600
1F80
1A40
2A40
3280
3080
5100
6300
F100
7E00
1200
ENDCHAR
STARTCHAR percent
ENCODING 37
SWIDTH 1296 0
DWIDTH 13 0
BBX 7 11 3 -3
BITMAP
40
C0
E0
C0
C0
40
60
20
3E
1E
0C
ENDCHAR
STARTCHAR ampersand
ENCODING 38
SWIDTH 601 0
DWIDTH 6 0
BBX 6 7 0 0
BITMAP
70
50
50
E0
B8
98
7C
ENDCHAR
STARTCHAR parenleft
ENCODING 40
SWIDTH 338 0
DWIDTH 3 0
BBX 2 8 0 -1
BITMAP
40
40
80
80
80
80
40
40
ENDCHAR
STARTCHAR parenright
ENCODING 41
SWIDTH 338 0
DWIDTH 3 0
BBX 3 8 0 -1
BITMAP
C0
40
20
20
20
20
40
80
ENDCHAR
STARTCHAR asterisk
ENCODING 42
SWIDTH 1295 0
DWIDTH 13 0
BBX 10 9 2 -2
BITMAP
1C00
1C00
2600
FE00
3FC0
60C0
7100
7180
6180
ENDCHAR
STARTCHAR plus
ENCODING 43
SWIDTH 1296 0
DWIDTH 13 0
BBX 10 11 1 -3
BITMAP
1200
1200
0C00
0C00
FFC0
D540
0C00
0C00
7380
5280
3180
ENDCHAR
STARTCHAR comma
ENCODING 44
SWIDTH 167 0
DWIDTH 2 0
BBX 1 1 0 0
BITMAP
80
ENDCHAR
STARTCHAR hyphen
ENCODING 45
SWIDTH 272 0
DWIDTH 3 0
BBX 2 1 0 2
BITMAP
C0
ENDCHAR
STARTCHAR period
ENCODING 46
SWIDTH 165 0
DWIDTH 2 0
BBX 1 1 0 0
BITMAP
80
ENDCHAR
STARTCHAR slash
ENCODING 47
SWIDTH 314 0
DWIDTH 3 0
BBX 3 9 0 -2
BITMAP
20
40
40
40
40
80
80
80
80
ENDCHAR
STARTCHAR zero
ENCODING 48
SWIDTH 616 0
DWIDTH 6 0
BBX 5 7 0 0
BITMAP
70
D8
88
88
88
C8
70
ENDCHAR
STARTCHAR one
ENCODING 49
SWIDTH 305 0
DWIDTH 3 0
BBX 2 7 0 0
BITMAP
40
C0
40
40
40
40
40
ENDCHAR
STARTCHAR two
ENCODING 50
SWIDTH 546 0
DWIDTH 5 0
BBX 5 7 0 0
BITMAP
70
D8
88
18
30
40
F8
ENDCHAR
STARTCHAR three
ENCODING 51
SWIDTH 574 0
DWIDTH 6 0
BBX 5 7 0 0
BITMAP
70
D8
88
30
08
88
70
ENDCHAR
STARTCHAR four
ENCODING 52
SWIDTH 600 0
DWIDTH 6 0
BBX 5 7 0 0
BITMAP
18
38
78
58
98
F8
18
ENDCHAR
STARTCHAR five
ENCODING 53
SWIDTH 564 0
DWIDTH 6 0
BBX 5 7 0 0
BITMAP
F8
80
A0
D8
08
98
70
ENDCHAR
STARTCHAR six
ENCODING 54
SWIDTH 568 0
DWIDTH 6 0
BBX 5 7 0 0
BITMAP
70
D8
80
F8
88
C8
70
ENDCHAR
STARTCHAR seven
ENCODING 55
SWIDTH 477 0
DWIDTH 5 0
BBX 5 7 0 0
BITMAP
F8
F0
10
30
20
20
40
ENDCHAR
STARTCHAR eight
ENCODING 56
SWIDTH 565 0
DWIDTH 6 0
BBX 5 7 0 0
BITMAP
70
D8
88
70
88
88
70
ENDCHAR
STARTCHAR nine
ENCODING 57
SWIDTH 568 0
DWIDTH 6 0
BBX 5 7 0 0
BITMAP
70
D8
88
98
68
08
70
ENDCHAR
STARTCHAR colon
ENCODING 58
SWIDTH 167 0
DWIDTH 2 0
BBX 1 3 0 1
BITMAP
80
00
80
ENDCHAR
STARTCHAR semicolon
ENCODING 59
SWIDTH 167 0
DWIDTH 2 0
BBX 1 4 0 0
BITMAP
80
00
00
80
ENDCHAR
STARTCHAR less
ENCODING 60
SWIDTH 1296 0
DWIDTH 13 0
BBX 4 11 4 -3
BITMAP
60
60
70
70
F0
E0
70
F0
20
20
20
ENDCHAR
STARTCHAR equal
ENCODING 61
SWIDTH 1700 0
DWIDTH 17 0
BBX 12 7 2 -1
BITMAP
1C00
0380
FFF0
0600
FFF0
1C00
0380
ENDCHAR
STARTCHAR greater
ENCODING 62
SWIDTH 1296 0
DWIDTH 13 0
BBX 6 11 3 -3
BITMAP
30
30
20
78
78
B8
B4
70
58
48
C8
ENDCHAR
STARTCHAR question
ENCODING 63
SWIDTH 542 0
DWIDTH 5 0
BBX 4 7 0 0
BITMAP
60
F0
90
30
60
00
40
ENDCHAR
STARTCHAR at
ENCODING 64
SWIDTH 1296 0
DWIDTH 13 0
BBX 10 9 1 -2
BITMAP
FFC0
F3C0
F3C0
F3C0
C0C0
F3C0
F3C0
F3C0
FFC0
ENDCHAR
STARTCHAR A
ENCODING 65
SWIDTH 619 0
DWIDTH 6 0
BBX 6 7 0 0
BITMAP
30
30
78
48
48
F8
8C
ENDCHAR
STARTCHAR B
ENCODING 66
SWIDTH 618 0
DWIDTH 6 0
BBX 5 7 0 0
BITMAP
F0
98
88
F8
88
88
F8
ENDCHAR
STARTCHAR C
ENCODING 67
SWIDTH 620 0
DWIDTH 6 0
BBX 6 7 0 0
BITMAP
78
C8
8C
80
80
CC
78
ENDCHAR
STARTCHAR D
ENCODING 68
SWIDTH 643 0
DWIDTH 6 0
BBX 5 7 0 0
BITMAP
F0
F8
88
88
88
88
F0
ENDCHAR
STARTCHAR E
ENCODING 69
SWIDTH 557 0
DWIDTH 6 0
BBX 5 7 0 0
BITMAP
F0
80
80
F0
80
80
F8
ENDCHAR
STARTCHAR F
ENCODING 70
SWIDTH 539 0
DWIDTH 5 0
BBX 5 7 0 0
BITMAP
F8
80
80
F0
80
80
80
ENDCHAR
STARTCHAR G
ENCODING 71
SWIDTH 657 0
DWIDTH 7 0
BBX 6 7 0 0
BITMAP
78
E8
80
9C
84
CC
74
ENDCHAR
STARTCHAR H
ENCODING 72
SWIDTH 625 0
DWIDTH 6 0
BBX 5 7 0 0
BITMAP
88
88
88
F8
88
88
88
ENDCHAR
STARTCHAR I
ENCODING 73
SWIDTH 240 0
DWIDTH 2 0
BBX 1 7 0 0
BITMAP
80
80
80
80
80
80
80
ENDCHAR
STARTCHAR J
ENCODING 74
SWIDTH 320 0
DWIDTH 3 0
BBX 3 7 0 0
BITMAP
60
60
60
60
60
60
C0
ENDCHAR
STARTCHAR K
ENCODING 75
SWIDTH 584 0
DWIDTH 6 0
BBX 5 7 0 0
BITMAP
98
B0
A0
E0
F0
90
88
ENDCHAR
STARTCHAR L
ENCODING 76
SWIDTH 520 0
DWIDTH 5 0
BBX 4 7 0 0
BITMAP
80
80
80
80
80
80
F0
ENDCHAR
STARTCHAR M
ENCODING 77
SWIDTH 757 0
DWIDTH 8 0
BBX 6 7 1 0
BITMAP
CC
CC
CC
AC
B4
B4
94
ENDCHAR
STARTCHAR N
ENCODING 78
SWIDTH 680 0
DWIDTH 7 0
BBX 6 7 0 0
BITMAP
CC
CC
EC
AC
9C
9C
8C
ENDCHAR
STARTCHAR O
ENCODING 79
SWIDTH 660 0
DWIDTH 7 0
BBX 6 7 0 0
BITMAP
78
F8
8C
84
84
CC
78
ENDCHAR
STARTCHAR P
ENCODING 80
SWIDTH 564 0
DWIDTH 6 0
BBX 5 7 0 0
BITMAP
F0
98
88
98
F0
80
80
ENDCHAR
STARTCHAR Q
ENCODING 81
SWIDTH 668 0
DWIDTH 7 0
BBX 6 8 0 -1
BITMAP
78
CC
84
84
84
CC
78
04
ENDCHAR
STARTCHAR R
ENCODING 82
SWIDTH 581 0
DWIDTH 6 0
BBX 5 7 0 0
BITMAP
F0
98
88
F0
98
88
88
ENDCHAR
STARTCHAR S
ENCODING 83
SWIDTH 604 0
DWIDTH 6 0
BBX 5 7 0 0
BITMAP
70
D8
80
78
08
88
78
ENDCHAR
STARTCHAR T
ENCODING 84
SWIDTH 493 0
DWIDTH 5 0
BBX 5 7 0 0
BITMAP
F8
20
20
20
20
20
20
ENDCHAR
STARTCHAR U
ENCODING 85
SWIDTH 648 0
DWIDTH 6 0
BBX 5 7 0 0
BITMAP
88
88
88
88
88
88
70
ENDCHAR
STARTCHAR V
ENCODING 86
SWIDTH 594 0
DWIDTH 6 0
BBX 6 7 0 0
BITMAP
8C
C8
48
58
70
30
30
ENDCHAR
STARTCHAR W
ENCODING 87
SWIDTH 849 0
DWIDTH 8 0
BBX 8 7 0 0
BITMAP
99
D9
59
5E
76
66
66
ENDCHAR
STARTCHAR X
ENCODING 88
SWIDTH 606 0
DWIDTH 6 0
BBX 5 7 0 0
BITMAP
C8
58
30
30
30
58
C8
ENDCHAR
STARTCHAR Y
ENCODING 89
SWIDTH 569 0
DWIDTH 6 0
BBX 5 7 0 0
BITMAP
C8
58
50
30
20
20
20
ENDCHAR
STARTCHAR Z
ENCODING 90
SWIDTH 528 0
DWIDTH 5 0
BBX 5 7 0 0
BITMAP
F8
10
30
20
40
C0
F8
ENDCHAR
STARTCHAR bracketleft
ENCODING 91
SWIDTH 1295 0
DWIDTH 13 0
BBX 9 5 2 0
BITMAP
3F00
3F00
3F00
FF80
7F00
ENDCHAR
STARTCHAR backslash
ENCODING 92
SWIDTH 1295 0
DWIDTH 13 0
BBX 9 9 2 -2
BITMAP
C180
6380
7300
3C00
1C00
3E00
6300
C180
8080
ENDCHAR
STARTCHAR bracketright
ENCODING 93
SWIDTH 1295 0
DWIDTH 13 0
BBX 5 9 4 -2
BITMAP
F8
F8
F8
F8
70
20
20
20
F8
ENDCHAR
STARTCHAR a
ENCODING 97
SWIDTH 525 0
DWIDTH 5 0
BBX 5 5 0 0
BITMAP
70
90
F8
98
F8
ENDCHAR
STARTCHAR b
ENCODING 98
SWIDTH 555 0
DWIDTH 6 0
BBX 5 7 0 0
BITMAP
80
80
F0
98
88
98
F0
ENDCHAR
STARTCHAR c
ENCODING 99
SWIDTH 515 0
DWIDTH 5 0
BBX 5 5 0 0
BITMAP
70
98
80
98
70
ENDCHAR
STARTCHAR d
ENCODING 100
SWIDTH 555 0
DWIDTH 6 0
BBX 5 7 0 0
BITMAP
08
08
78
88
88
88
78
ENDCHAR
STARTCHAR e
ENCODING 101
SWIDTH 534 0
DWIDTH 5 0
BBX 5 5 0 0
BITMAP
70
88
F8
88
70
ENDCHAR
STARTCHAR f
ENCODING 102
SWIDTH 319 0
DWIDTH 3 0
BBX 3 7 0 0
BITMAP
60
40
E0
40
40
40
40
ENDCHAR
STARTCHAR g
ENCODING 103
SWIDTH 539 0
DWIDTH 5 0
BBX 5 7 0 -2
BITMAP
78
98
88
D8
68
98
70
ENDCHAR
STARTCHAR h
ENCODING 104
SWIDTH 530 0
DWIDTH 5 0
BBX 4 7 0 0
BITMAP
80
80
F0
90
90
90
90
ENDCHAR
STARTCHAR i
ENCODING 105
SWIDTH 219 0
DWIDTH 2 0
BBX 1 7 0 0
BITMAP
80
00
80
80
80
80
80
ENDCHAR
STARTCHAR j
ENCODING 106
SWIDTH 239 0
DWIDTH 2 0
BBX 2 9 0 -2
BITMAP
40
00
40
40
40
40
40
40
C0
ENDCHAR
STARTCHAR k
ENCODING 107
SWIDTH 523 0
DWIDTH 5 0
BBX 4 7 0 0
BITMAP
80
80
90
A0
E0
B0
90
ENDCHAR
STARTCHAR l
ENCODING 108
SWIDTH 218 0
DWIDTH 2 0
BBX 1 7 0 0
BITMAP
80
80
80
80
80
80
80
ENDCHAR
STARTCHAR m
ENCODING 109
SWIDTH 788 0
DWIDTH 8 0
BBX 7 5 0 0
BITMAP
FE
92
92
92
92
ENDCHAR
STARTCHAR n
ENCODING 110
SWIDTH 534 0
DWIDTH 5 0
BBX 4 5 0 0
BITMAP
F0
90
90
90
90
ENDCHAR
STARTCHAR o
ENCODING 111
SWIDTH 541 0
DWIDTH 5 0
BBX 5 5 0 0
BITMAP
70
88
88
88
70
ENDCHAR
STARTCHAR p
ENCODING 112
SWIDTH 557 0
DWIDTH 6 0
BBX 5 7 0 -2
BITMAP
F0
98
88
98
F0
80
80
ENDCHAR
STARTCHAR q
ENCODING 113
SWIDTH 557 0
DWIDTH 6 0
BBX 5 7 0 -2
BITMAP
78
88
88
88
78
08
08
ENDCHAR
STARTCHAR r
ENCODING 114
SWIDTH 345 0
DWIDTH 3 0
BBX 3 5 0 0
BITMAP
E0
80
80
80
80
ENDCHAR
STARTCHAR s
ENCODING 115
SWIDTH 505 0
DWIDTH 5 0
BBX 5 5 0 0
BITMAP
70
80
70
98
70
ENDCHAR
STARTCHAR t
ENCODING 116
SWIDTH 328 0
DWIDTH 3 0
BBX 3 7 0 0
BITMAP
40
40
E0
40
40
40
60
ENDCHAR
STARTCHAR u
ENCODING 117
SWIDTH 531 0
DWIDTH 5 0
BBX 4 5 0 0
BITMAP
90
90
90
90
F0
ENDCHAR
STARTCHAR v
ENCODING 118
SWIDTH 525 0
DWIDTH 5 0
BBX 5 5 0 0
BITMAP
88
50
50
50
20
ENDCHAR
STARTCHAR w
ENCODING 119
SWIDTH 750 0
DWIDTH 8 0
BBX 7 5 0 0
BITMAP
92
DA
6E
6C
6C
ENDCHAR
STARTCHAR x
ENCODING 120
SWIDTH 508 0
DWIDTH 5 0
BBX 4 5 0 0
BITMAP
50
70
20
50
D0
ENDCHAR
STARTCHAR y
ENCODING 121
SWIDTH 501 0
DWIDTH 5 0
BBX 5 7 0 -2
BITMAP
98
50
50
50
20
20
60
ENDCHAR
STARTCHAR z
ENCODING 122
SWIDTH 444 0
DWIDTH 4 0
BBX 4 5 0 0
BITMAP
F0
20
60
C0
F0
ENDCHAR
STARTCHAR braceleft
ENCODING 123
SWIDTH 1296 0
DWIDTH 13 0
BBX 9 10 2 -2
BITMAP
3000
3000
2000
2000
7800
E000
BE00
8200
8580
7900
ENDCHAR
STARTCHAR braceright
ENCODING 125
SWIDTH 1296 0
DWIDTH 13 0
BBX 9 10 2 -2
BITMAP
0600
0600
0200
0200
0F00
1E80
2080
2080
D080
4F00
ENDCHAR
STARTCHAR nonbreakingspace
ENCODING 160
SWIDTH 199 0
DWIDTH 2 0
BBX 1 1 0 0
BITMAP
00
ENDCHAR
STARTCHAR exclamdown
ENCODING 161
SWIDTH 993 0
DWIDTH 10 0
BBX 10 11 0 -3
BITMAP
FFC0
C0C0
C6C0
DCC0
EEC0
C9C0
D4C0
B4C0
C2C0
C0C0
FFC0
ENDCHAR
STARTCHAR cent
ENCODING 162
SWIDTH 1002 0
DWIDTH 10 0
BBX 10 11 0 -3
BITMAP
FFC0
FFC0
E7C0
F9C0
E2C0
FBC0
F7C0
F4C0
EFC0
FFC0
FFC0
ENDCHAR
STARTCHAR sterling
ENCODING 163
SWIDTH 569 0
DWIDTH 6 0
BBX 5 7 0 0
BITMAP
70
D0
C8
E0
40
40
F8
ENDCHAR
STARTCHAR yen
ENCODING 165
SWIDTH 1296 0
DWIDTH 13 0
BBX 12 5 0 0
BITMAP
FFF0
A930
FFF0
EFB0
3FF0
ENDCHAR
STARTCHAR section
ENCODING 167
SWIDTH 1295 0
DWIDTH 13 0
BBX 10 9 1 -2
BITMAP
8080
FFC0
9480
BF80
AF80
BF80
BF80
FFC0
8080
ENDCHAR
STARTCHAR copyright
ENCODING 169
SWIDTH 1296 0
DWIDTH 13 0
BBX 8 9 2 -2
BITMAP
02
07
4E
CC
D8
F8
F0
FE
FC
ENDCHAR
STARTCHAR ordfeminine
ENCODING 170
SWIDTH 1296 0
DWIDTH 13 0
BBX 10 9 1 -2
BITMAP
E0C0
6080
60C0
00C0
00C0
07C0
F400
B7C0
F400
ENDCHAR
STARTCHAR guillemotleft
ENCODING 171
SWIDTH 445 0
DWIDTH 4 0
BBX 3 5 0 0
BITMAP
40
A0
C0
A0
40
ENDCHAR
STARTCHAR logicalnot
ENCODING 172
SWIDTH 1296 0
DWIDTH 13 0
BBX 8 9 2 -2
BITMAP
FC
FE
F0
F8
D8
CC
4E
07
02
ENDCHAR
STARTCHAR registered
ENCODING 174
SWIDTH 1296 0
DWIDTH 13 0
BBX 10 9 1 -2
BITMAP
1E00
3F00
2180
6080
FFC0
6080
2180
3F00
1E00
ENDCHAR
STARTCHAR mu
ENCODING 181
SWIDTH 1296 0
DWIDTH 13 0
BBX 10 11 1 -3
BITMAP
3FC0
3FC0
0040
1040
0840
FC40
0840
1040
0040
3FC0
3FC0
ENDCHAR
STARTCHAR paragraph
ENCODING 182
SWIDTH 1295 0
DWIDTH 13 0
BBX 9 9 2 -2
BITMAP
FF80
9C80
ED80
ED80
DD80
DD80
FF80
0400
3E00
ENDCHAR
STARTCHAR periodcentered
ENCODING 183
SWIDTH 261 0
DWIDTH 3 0
BBX 2 2 0 2
BITMAP
C0
C0
ENDCHAR
STARTCHAR ordmasculine
ENCODING 186
SWIDTH 1295 0
DWIDTH 13 0
BBX 9 9 2 -2
BITMAP
E080
6080
E880
0F80
0C80
0B80
0C00
0F80
0800
ENDCHAR
STARTCHAR guillemotright
ENCODING 187
SWIDTH 445 0
DWIDTH 4 0
BBX 3 5 1 0
BITMAP
40
A0
60
A0
40
ENDCHAR
STARTCHAR Acircumflex
ENCODING 194
SWIDTH 612 0
DWIDTH 6 0
BBX 6 7 0 0
BITMAP
30
30
78
48
48
F8
8C
ENDCHAR
STARTCHAR Ccedilla
ENCODING 199
SWIDTH 614 0
DWIDTH 6 0
BBX 6 9 0 -2
BITMAP
78
C8
8C
80
80
C8
78
20
30
ENDCHAR
STARTCHAR Egrave
ENCODING 200
SWIDTH 552 0
DWIDTH 6 0
BBX 5 7 0 0
BITMAP
F0
80
80
F0
80
80
F8
ENDCHAR
STARTCHAR Eacute
ENCODING 201
SWIDTH 552 0
DWIDTH 6 0
BBX 5 7 0 0
BITMAP
F0
80
80
F0
80
80
F8
ENDCHAR
STARTCHAR Ecircumflex
ENCODING 202
SWIDTH 552 0
DWIDTH 6 0
BBX 5 7 0 0
BITMAP
F0
80
80
F0
80
80
F8
ENDCHAR
STARTCHAR Igrave
ENCODING 204
SWIDTH 241 0
DWIDTH 2 0
BBX 2 7 0 0
BITMAP
C0
C0
C0
C0
C0
C0
C0
ENDCHAR
STARTCHAR Ograve
ENCODING 210
SWIDTH 652 0
DWIDTH 7 0
BBX 6 7 0 0
BITMAP
78
F8
8C
84
84
CC
78
ENDCHAR
STARTCHAR Ocircumflex
ENCODING 212
SWIDTH 652 0
DWIDTH 7 0
BBX 6 7 0 0
BITMAP
78
F8
8C
84
84
CC
78
ENDCHAR
STARTCHAR Ugrave
ENCODING 217
SWIDTH 639 0
DWIDTH 6 0
BBX 5 7 0 0
BITMAP
88
88
88
88
88
88
70
ENDCHAR
STARTCHAR germandbls
ENCODING 223
SWIDTH 1296 0
DWIDTH 13 0
BBX 11 7 1 -1
BITMAP
0600
0300
FFC0
FFE0
01C0
0300
0600
ENDCHAR
STARTCHAR agrave
ENCODING 224
SWIDTH 523 0
DWIDTH 5 0
BBX 5 5 0 0
BITMAP
70
90
F8
98
F8
ENDCHAR
STARTCHAR acircumflex
ENCODING 226
SWIDTH 523 0
DWIDTH 5 0
BBX 5 5 0 0
BITMAP
70
90
F8
98
F8
ENDCHAR
STARTCHAR aring
ENCODING 229
SWIDTH 1296 0
DWIDTH 13 0
BBX 11 7 1 -1
BITMAP
1C00
3800
7FE0
FFE0
7000
3800
1C00
ENDCHAR
STARTCHAR ae
ENCODING 230
SWIDTH 875 0
DWIDTH 9 0
BBX 8 5 0 0
BITMAP
7E
99
FF
99
FF
ENDCHAR
STARTCHAR ccedilla
ENCODING 231
SWIDTH 510 0
DWIDTH 5 0
BBX 5 6 0 -1
BITMAP
70
98
80
98
70
20
ENDCHAR
STARTCHAR egrave
ENCODING 232
SWIDTH 527 0
DWIDTH 5 0
BBX 5 5 0 0
BITMAP
70
88
F8
88
70
ENDCHAR
STARTCHAR eacute
ENCODING 233
SWIDTH 527 0
DWIDTH 5 0
BBX 5 6 0 0
BITMAP
20
70
88
F8
88
70
ENDCHAR
STARTCHAR ecircumflex
ENCODING 234
SWIDTH 527 0
DWIDTH 5 0
BBX 5 5 0 0
BITMAP
70
88
F8
88
70
ENDCHAR
STARTCHAR edieresis
ENCODING 235
SWIDTH 527 0
DWIDTH 5 0
BBX 5 5 0 0
BITMAP
70
88
F8
88
70
ENDCHAR
STARTCHAR icircumflex
ENCODING 238
SWIDTH 219 0
DWIDTH 2 0
BBX 2 6 0 0
BITMAP
C0
C0
C0
C0
C0
C0
ENDCHAR
STARTCHAR idieresis
ENCODING 239
SWIDTH 219 0
DWIDTH 2 0
BBX 2 5 0 0
BITMAP
C0
C0
C0
C0
C0
ENDCHAR
STARTCHAR ocircumflex
ENCODING 244
SWIDTH 534 0
DWIDTH 5 0
BBX 5 5 0 0
BITMAP
70
88
88
88
70
ENDCHAR
STARTCHAR divide
ENCODING 247
SWIDTH 1296 0
DWIDTH 13 0
BBX 10 11 1 -3
BITMAP
0C00
0C00
0C00
AE40
9E40
8C40
8040
8040
8040
FFC0
FFC0
ENDCHAR
STARTCHAR oslash
ENCODING 248
SWIDTH 1296 0
DWIDTH 13 0
BBX 12 5 0 0
BITMAP
FFF0
CA90
BFF0
DF70
EFC0
ENDCHAR
STARTCHAR ugrave
ENCODING 249
SWIDTH 524 0
DWIDTH 5 0
BBX 4 5 0 0
BITMAP
90
90
90
90
F0
ENDCHAR
STARTCHAR ucircumflex
ENCODING 251
SWIDTH 524 0
DWIDTH 5 0
BBX 4 5 0 0
BITMAP
90
90
90
90
F0
ENDCHAR
STARTCHAR udieresis
ENCODING 252
SWIDTH 524 0
DWIDTH 5 0
BBX 4 5 0 0
BITMAP
90
90
90
90
F0
ENDCHAR
STARTCHAR oe
ENCODING 339
SWIDTH 909 0
DWIDTH 9 0
BBX 9 5 0 0
BITMAP
7700
8900
8F80
8900
7700
ENDCHAR
STARTCHAR florin
ENCODING 402
SWIDTH 1296 0
DWIDTH 13 0
BBX 8 11 2 -3
BITMAP
18
18
18
18
19
99
DB
FE
7C
38
10
ENDCHAR
STARTCHAR Delta
ENCODING 916
SWIDTH 1296 0
DWIDTH 13 0
BBX 8 9 2 -2
BITMAP
40
E0
72
3B
1F
0F
07
3F
3F
ENDCHAR
STARTCHAR Omega
ENCODING 937
SWIDTH 1296 0
DWIDTH 13 0
BBX 10 11 1 -3
BITMAP
3FC0
3FC0
0040
3040
6040
FE40
6040
3040
0040
3FC0
3FC0
ENDCHAR
STARTCHAR mu.dup1
ENCODING 956
SWIDTH 1296 0
DWIDTH 13 0
BBX 10 11 1 -3
BITMAP
3FC0
3FC0
0040
1040
0840
FC40
0840
1040
0040
3FC0
3FC0
ENDCHAR
STARTCHAR pi
ENCODING 960
SWIDTH 1296 0
DWIDTH 13 0
BBX 12 6 0 -1
BITMAP
4100
4700
4780
7F70
FFF0
FFF0
ENDCHAR
STARTCHAR hyphen.dup2
ENCODING 8208
SWIDTH 272 0
DWIDTH 3 0
BBX 2 1 0 2
BITMAP
C0
ENDCHAR
STARTCHAR endash
ENCODING 8211
SWIDTH 397 0
DWIDTH 4 0
BBX 3 1 0 2
BITMAP
E0
ENDCHAR
STARTCHAR emdash
ENCODING 8212
SWIDTH 786 0
DWIDTH 8 0
BBX 5 1 1 2
BITMAP
F8
ENDCHAR
STARTCHAR quoteleft
ENCODING 8216
SWIDTH 166 0
DWIDTH 2 0
BBX 1 2 0 5
BITMAP
80
80
ENDCHAR
STARTCHAR quoteright
ENCODING 8217
SWIDTH 165 0
DWIDTH 2 0
BBX 1 1 0 6
BITMAP
80
ENDCHAR
STARTCHAR quotedblleft
ENCODING 8220
SWIDTH 1296 0
DWIDTH 13 0
BBX 12 6 0 -1
BITMAP
1040
1640
2E40
E7E0
FFF0
FFF0
ENDCHAR
STARTCHAR dagger
ENCODING 8224
SWIDTH 1295 0
DWIDTH 13 0
BBX 9 9 2 -2
BITMAP
1800
6700
8100
8100
FE80
FE80
C380
FF00
C100
ENDCHAR
STARTCHAR bullet
ENCODING 8226
SWIDTH 1296 0
DWIDTH 13 0
BBX 10 9 1 -2
BITMAP
03C0
01C0
1940
7E80
4F80
4F80
7F80
7F80
FF80
ENDCHAR
STARTCHAR ellipsis
ENCODING 8230
SWIDTH 1296 0
DWIDTH 13 0
BBX 8 9 2 -2
BITMAP
3F
3F
07
0F
1F
3B
72
E0
40
ENDCHAR
STARTCHAR trademark
ENCODING 8482
SWIDTH 993 0
DWIDTH 10 0
BBX 10 11 0 -3
BITMAP
FFC0
C0C0
D8C0
CEC0
DCC0
E4C0
CCC0
CB40
D0C0
C0C0
FFC0
ENDCHAR
STARTCHAR Omega.dup3
ENCODING 8486
SWIDTH 1296 0
DWIDTH 13 0
BBX 10 11 1 -3
BITMAP
3FC0
3FC0
0040
3040
6040
FE40
6040
3040
0040
3FC0
3FC0
ENDCHAR
STARTCHAR partialdiff
ENCODING 8706
SWIDTH 1296 0
DWIDTH 13 0
BBX 8 11 2 -3
BITMAP
10
38
7C
FE
DB
99
19
18
18
18
18
ENDCHAR
STARTCHAR Delta.dup4
ENCODING 8710
SWIDTH 1296 0
DWIDTH 13 0
BBX 8 9 2 -2
BITMAP
40
E0
72
3B
1F
0F
07
3F
3F
ENDCHAR
STARTCHAR periodcentered.dup5
ENCODING 8729
SWIDTH 261 0
DWIDTH 3 0
BBX 2 2 0 2
BITMAP
C0
C0
ENDCHAR
STARTCHAR radical
ENCODING 8730
SWIDTH 1296 0
DWIDTH 13 0
BBX 10 11 1 -3
BITMAP
0800
0C00
1E00
9E40
8C40
8C40
8C40
8040
8040
FFC0
FFC0
ENDCHAR
STARTCHAR infinity
ENCODING 8734
SWIDTH 1296 0
DWIDTH 13 0
BBX 9 9 2 -2
BITMAP
8000
4C00
7F00
7700
7F00
7F00
4000
3F00
4180
ENDCHAR
STARTCHAR integral
ENCODING 8747
SWIDTH 1296 0
DWIDTH 13 0
BBX 10 11 1 -3
BITMAP
FFC0
FFC0
8040
8040
8C40
8C40
8C40
9E40
1E00
0C00
0800
ENDCHAR
STARTCHAR approxequal
ENCODING 8776
SWIDTH 1296 0
DWIDTH 13 0
BBX 10 11 1 -3
BITMAP
FF00
FF00
8000
8100
8080
8FC0
8080
8100
8000
FF00
FF00
ENDCHAR
STARTCHAR notequal
ENCODING 8800
SWIDTH 1295 0
DWIDTH 13 0
BBX 9 9 2 -2
BITMAP
2200
6300
E300
FF80
E380
E380
E300
6300
3C00
ENDCHAR
STARTCHAR lessequal
ENCODING 8804
SWIDTH 1295 0
DWIDTH 13 0
BBX 10 11 1 -3
BITMAP
FF00
FF00
8000
8200
8400
8FC0
8400
8200
8000
FF00
FF00
ENDCHAR
STARTCHAR greaterequal
ENCODING 8805
SWIDTH 1296 0
DWIDTH 13 0
BBX 10 11 1 -3
BITMAP
FFC0
FFC0
8040
8040
8040
8C40
9E40
AE40
0C00
0C00
0C00
ENDCHAR
STARTCHAR approxequal.dup6
ENCODING 8946
SWIDTH 1296 0
DWIDTH 13 0
BBX 10 11 1 -3
BITMAP
FF00
FF00
8000
8100
8080
8FC0
8080
8100
8000
FF00
FF00
ENDCHAR
STARTCHAR .notdef
ENCODING -1
SWIDTH 500 0
DWIDTH 5 0
BBX 4 7 0 0
BITMAP
F0
90
90
90
90
90
F0
ENDCHAR
STARTCHAR .null
ENCODING -1
SWIDTH 0 0
DWIDTH 0 0
BBX 1 1 0 0
BITMAP
00
ENDCHAR
STARTCHAR nonmarkingreturn
ENCODING -1
SWIDTH 199 0
DWIDTH 2 0
BBX 1 1 0 0
BITMAP
00
ENDCHAR
STARTCHAR glyph156
ENCODING -1
SWIDTH 333 0
DWIDTH 3 0
BBX 1 1 0 0
BITMAP
00
ENDCHAR
STARTCHAR summmation
ENCODING -1
SWIDTH 1295 0
DWIDTH 13 0
BBX 7 11 3 -3
BITMAP
30
6C
7E
82
46
7E
7E
7A
7C
44
82
ENDCHAR
ENDFONT
